<?xml version="1.0" encoding="UTF-8"?>
<svg width="69px" height="15px" viewBox="0 0 69 15" version="1.1" xmlns="http://www.w3.org/2000/svg" xmlns:xlink="http://www.w3.org/1999/xlink">
    <!-- Generator: Sketch 64 (93537) - https://sketch.com -->
    <title>multor-logo-footer</title>
    <desc>Created with Sketch.</desc>
    <g id="Mockup" stroke="none" stroke-width="1" fill="none" fill-rule="evenodd" opacity="0.603073847">
        <g id="Virtual-Appointment-Landing-Page-Template-Mockup" transform="translate(-249.000000, -3812.000000)" fill="#FFFFFF" fill-rule="nonzero">
            <g id="multor-logo-footer" transform="translate(249.000000, 3812.000000)">
                <polygon id="Path" points="1.49130435 14.8491304 1.49130435 3.57913043 6.83869565 14.8491304 7.71217391 14.8491304 13.0595652 3.53652174 13.0595652 14.8491304 14.5508696 14.8491304 14.5508696 0.149130435 13.166087 0.149130435 7.28608696 12.6973913 1.38478261 0.149130435 0 0.149130435 0 14.8491304"></polygon>
                <path d="M21.5486957,14.9982609 C23.1394203,14.9982609 24.4389855,14.5686232 25.4473913,13.7093478 C26.4557971,12.8500725 26.96,11.5824638 26.96,9.90652174 L26.96,9.90652174 L26.96,0.149130435 L25.4686957,0.149130435 L25.4686957,9.90652174 C25.4686957,11.2131884 25.1207246,12.1825362 24.4247826,12.8145652 C23.7288406,13.4465942 22.7701449,13.7626087 21.5486957,13.7626087 C20.3272464,13.7626087 19.365,13.4465942 18.6619565,12.8145652 C17.958913,12.1825362 17.6073913,11.2131884 17.6073913,9.90652174 L17.6073913,9.90652174 L17.6073913,0.149130435 L16.116087,0.149130435 L16.116087,9.90652174 C16.116087,11.5824638 16.6238406,12.8500725 17.6393478,13.7093478 C18.6548551,14.5686232 19.957971,14.9982609 21.5486957,14.9982609 Z" id="Path"></path>
                <polygon id="Path" points="35.3426087 14.8491304 35.3426087 13.6986957 29.9952174 13.6986957 29.9952174 0.149130435 28.503913 0.149130435 28.503913 14.8491304"></polygon>
                <polygon id="Path" points="39.4213043 14.8491304 39.4213043 1.36347826 43.2773913 1.36347826 43.2773913 0.149130435 34.0952174 0.149130435 34.0952174 1.36347826 37.9513043 1.36347826 37.9513043 14.8491304"></polygon>
                <path d="M52.4751169,7.46069873e-14 C54.5842473,7.46069873e-14 56.0997226,0.706594203 57.0215428,2.11978261 C57.9433631,3.53297101 58.0101078,5.32608696 57.2217772,7.49913043 C56.4334465,9.67217391 55.0656986,11.4652899 53.1185333,12.8784783 C51.171368,14.2916667 49.1432201,14.9982609 47.0340897,14.9982609 C44.9249592,14.9982609 43.4010943,14.2952174 42.462495,12.8891304 C41.543251,11.4688406 41.4777944,9.67217391 42.266125,7.49913043 C43.0544557,5.32608696 44.4257544,3.53297101 46.3800211,2.11978261 C48.3342879,0.706594203 50.3659864,7.46069873e-14 52.4751169,7.46069873e-14 Z M50.6945911,3 C49.2307047,3 47.8404263,3.48027444 46.5237558,4.44082333 C45.2070853,5.40137221 44.2582077,6.66809605 43.677123,8.24099485 C43.0960383,9.81389365 43.1078614,11.0836192 43.7125923,12.0501715 C44.3173232,13.0167238 45.3486073,13.5 46.8064445,13.5 C48.2642818,13.5 49.6485111,13.0197256 50.9591325,12.0591767 C52.2862878,11.0866209 53.2404079,9.81389365 53.8214925,8.24099485 C54.4025772,6.66809605 54.3926697,5.40137221 53.7917701,4.44082333 C53.1908704,3.48027444 52.1584774,3 50.6945911,3 Z" id="Combined-Shape"></path>
                <path d="M63.3573913,0.149130435 L63.661644,0.153749151 C65.159606,0.199936311 66.3080435,0.592527174 67.1069565,1.33152174 C67.9591304,2.11978261 68.3852174,3.11753623 68.3852174,4.32478261 C68.3852174,5.53202899 68.0514493,6.50847826 67.383913,7.25413043 C66.7163768,7.99978261 65.7221739,8.45782609 64.4013043,8.62826087 L64.4013043,8.62826087 L68.5769565,14.8491304 L66.6382609,14.8491304 L62.6543478,8.69217391 L60.3534783,8.69217391 L60.3534783,14.8491304 L58.8621739,14.8491304 L58.8621739,0.149130435 L63.3573913,0.149130435 Z M63.3573913,1.36347826 L60.3534783,1.36347826 L60.3534783,7.47782609 L63.3573913,7.47782609 C65.7008696,7.47782609 66.8726087,6.45876812 66.8726087,4.42065217 C66.8726087,2.38253623 65.7008696,1.36347826 63.3573913,1.36347826 L63.3573913,1.36347826 Z" id="Combined-Shape"></path>
            </g>
        </g>
    </g>
</svg>